<svg width="34" height="36" viewBox="0 0 34 36" fill="none" xmlns="http://www.w3.org/2000/svg">
<path d="M1.89343 14.9173C1.89343 16.1771 3.09377 17.6666 3.66889 18.6981C5.89874 22.6977 8.55629 26.4018 11.0927 30.2064C11.7783 31.2348 12.416 32.2978 13.1165 33.3158C13.2895 33.5671 13.8815 34.1069 13.5765 34.1069C13.5118 34.1069 13.7073 33.8961 13.7145 33.8861C13.8075 33.7559 13.5486 33.7941 13.4845 33.7941" stroke="white" stroke-width="3" stroke-linecap="round"/>
<path d="M13.3189 33.7941C13.5672 33.4425 13.7386 33.0441 13.9353 32.6626C15.3521 29.914 17.0264 27.3305 18.7281 24.7513C22.5694 18.929 26.7431 13.1889 29.7304 6.85869C30.3941 5.45221 30.7976 3.94894 31.4415 2.54424C31.4753 2.47045 31.699 1.94828 31.699 2.16707" stroke="white" stroke-width="3" stroke-linecap="round"/>
</svg>
